<svg width="31" height="72" viewBox="0 0 31 72" fill="none" xmlns="http://www.w3.org/2000/svg">
<g clip-path="url(#clip0_30_55)">
<path d="M0 42.8618C0 44.4975 1.28062 45.7837 2.91624 45.7837C4.52624 45.7837 5.81249 44.4975 5.81249 42.8618V30.6844C5.81249 30.1444 6.26436 29.7181 6.80437 29.7181C7.34999 29.7181 7.77624 30.1444 7.77624 30.6844V67.6281C7.77624 69.4 9.20749 70.8056 10.9794 70.8056C12.74 70.8056 14.1825 69.3943 14.1825 67.6281V45.1343C14.1825 44.5943 14.6344 44.1168 15.1744 44.1168C15.72 44.1168 16.1919 44.5943 16.1919 45.1343V67.6281C16.1919 69.3943 17.6087 70.8056 19.375 70.8056C21.1468 70.8056 22.5781 69.4 22.5781 67.6281V30.6844C22.5781 30.1444 22.9987 29.7181 23.5443 29.7181C24.0843 29.7181 24.5362 30.1444 24.5362 30.6844V42.8618C24.5362 44.4975 25.8225 45.7837 27.4325 45.7837C29.0681 45.7837 30.3487 44.4975 30.3487 42.8618V29.2612C30.3487 22.2087 25.1006 17.545 17.5087 17.545H12.84C5.24812 17.545 0 22.2087 0 29.2612V42.8618ZM15.1744 14.0131C19.0569 14.0131 22.1837 10.8919 22.1837 7.00937C22.1837 3.12687 19.0569 0 15.1744 0C11.2919 0 8.16499 3.12687 8.16499 7.00937C8.16499 10.8919 11.2919 14.0131 15.1744 14.0131Z" fill="black" fill-opacity="0.85"/>
</g>
<defs>
<clipPath id="clip0_30_55">
<rect width="30.5362" height="71.3662" fill="white"/>
</clipPath>
</defs>
</svg>
