<svg width="145" height="371" viewBox="0 0 145 371" fill="none" xmlns="http://www.w3.org/2000/svg">
<path fill-rule="evenodd" clip-rule="evenodd" d="M70.5646 18.4515C68.643 18.9374 65.3153 20.7518 63.6528 22.2205C60.6653 24.8602 58.6046 29.4485 58.595 33.4829C58.5924 34.609 58.2967 35.9224 57.8485 36.799C56.9042 38.646 56.9065 40.8564 57.8555 43.6659C58.2674 44.8856 58.8465 47.0308 59.1422 48.4326C59.8075 51.5878 62.08 56.4962 64.1099 59.1621C65.4715 60.9503 65.64 61.3951 65.64 63.2002C65.64 65.7551 64.4386 67.9433 62.4299 69.0457C61.6448 69.4768 58.5813 70.5922 55.6223 71.5247C48.4649 73.7799 44.1362 75.5088 42.4674 76.7781C39.3623 79.1402 36.1314 88.4121 33.9609 101.189C32.5247 109.645 31.8661 116.136 31.3337 127.094C31.0669 132.589 30.6588 137.668 30.4273 138.381C29.0849 142.511 28.8864 145.845 28.498 170.787C28.0524 199.356 28.1726 201.495 30.5542 207.413C33.2741 214.17 35.3994 216.954 36.8946 215.716C37.4185 215.282 37.4901 214.802 37.3009 212.996C37.1747 211.79 36.9191 210.62 36.7332 210.395C36.4245 210.022 35.2161 204.83 35.2161 203.876C35.2161 203.653 35.5916 203.901 36.0509 204.428C36.8553 205.352 36.918 205.364 37.7717 204.763C38.6202 204.164 38.6488 204.003 38.4469 200.957C38.2314 197.704 37.0949 191.735 36.1043 188.652C36.0098 188.357 35.9176 188.179 35.8488 187.991C35.4643 186.945 35.8087 185.634 40.5432 162.434C42.0592 155.005 43.6658 146.263 44.1132 143.006C44.5607 139.75 45.401 134.754 45.9806 131.904C46.5597 129.055 47.33 124.268 47.6917 121.265C48.0538 118.263 48.4416 115.807 48.554 115.808C48.8475 115.809 50.6688 122.16 51.3129 125.428C52.2835 130.354 52.735 135.459 52.7848 142.081L52.8334 148.557L50.9193 152.258C45.2456 163.228 42.5679 178.252 43.1363 195.925C43.465 206.13 43.6346 207.326 48.9647 237.002C50.3765 244.861 52.8886 256.312 53.4704 257.54C53.7754 258.184 53.926 262.12 53.9654 270.492C54.0373 285.779 54.8269 293.939 58.0459 312.679C58.5531 315.63 59.1189 318.711 59.3036 319.525C62.05 331.62 62.4296 333.07 62.1064 334.343C62.0351 334.624 61.9296 334.896 61.8077 335.273C61.4667 336.326 61.1866 337.793 61.1855 338.533C61.1825 340.545 60.5929 342.291 59.2443 344.28C56.5614 348.24 55.9362 349.992 56.5948 351.703C56.9725 352.685 59.3259 353.431 62.4863 353.57C64.1188 353.642 66.4588 353.816 67.6865 353.957C69.8704 354.207 69.9457 354.185 71.1515 352.966C73.5543 350.537 73.6904 349.925 73.5839 342.031C73.4997 335.778 73.3966 334.726 72.718 333.195C71.8568 331.254 71.7548 329.059 72.2969 324.151C72.4879 322.421 73.1821 314.178 73.8392 305.833C74.4967 297.488 75.1745 290.502 75.3459 290.309C75.5211 290.111 75.6576 290.598 75.6576 291.419C75.6576 292.223 76.3254 300.832 77.1417 310.552C77.9579 320.271 78.6258 328.951 78.6258 329.84C78.6258 330.73 78.2763 332.246 77.8492 333.209C77.1517 334.782 77.0682 335.715 77.0256 342.415C76.9788 349.721 76.9959 349.896 77.8748 351.208C78.3683 351.944 79.3237 352.923 79.9982 353.384C81.0356 354.093 81.4945 354.181 82.9857 353.955C83.9548 353.808 86.1668 353.632 87.9014 353.563C91.6773 353.415 93.7238 352.672 94.0622 351.328C94.4751 349.687 93.919 347.824 92.4275 345.854C90.2206 342.938 89.7502 341.782 89.3528 338.293C89.1513 336.524 88.8256 334.916 88.6293 334.72C88.072 334.164 88.1982 332.903 89.2085 328.928C89.7231 326.903 90.7271 322.21 91.4391 318.499C95.3578 298.081 97.1075 280.921 96.6393 267.5C96.3941 260.463 96.4141 260.156 97.3294 256.953C98.4696 252.965 100.069 245.487 101.597 237.002C102.22 233.541 102.903 229.795 103.114 228.675C106.725 209.514 107.29 204.689 107.339 192.594C107.41 174.789 105.457 164.357 99.8542 152.628L97.7335 148.187L97.7936 141.711C97.8808 132.296 99.4747 121.75 101.527 117.005L102.126 115.622L102.97 122.098C103.434 125.66 104.225 130.322 104.727 132.46C105.229 134.597 105.739 137.344 105.861 138.566C106.429 144.262 107.617 150.684 112.755 175.829L115 186.818L114.238 189.521C112.461 195.823 111.518 203.389 112.38 204.426C112.995 205.165 113.833 205.143 114.694 204.364C115.366 203.759 115.38 203.793 115.139 205.382C115.001 206.287 114.496 208.276 114.015 209.802C112.987 213.064 112.889 215.063 113.723 215.752C115.872 217.532 120.611 208.559 121.853 200.356C122.393 196.793 122.438 193.913 122.223 176.867C121.89 150.432 121.575 144.004 120.38 139.306C119.774 136.925 119.438 134.589 119.438 132.75C119.438 124.089 117.749 106.63 116.079 98.027C114.734 91.0987 113.139 85.6159 111.28 81.5264C109.815 78.3031 108.598 76.7433 106.86 75.8589C104.967 74.8956 98.2436 72.4684 93.4667 71.0233C91.324 70.3753 88.9283 69.489 88.1433 69.0535C86.1004 67.9211 84.9332 65.7562 84.9332 63.0996C84.9332 61.2027 85.0742 60.8063 86.2273 59.4626C87.8769 57.5405 90.6703 51.8401 91.2584 49.1961C91.5073 48.0766 92.0397 46.1616 92.4412 44.9404C93.5906 41.4455 93.706 38.8551 92.7977 36.9345C92.3559 36.0008 91.957 34.2256 91.852 32.728C91.6279 29.5322 90.5694 26.6442 88.7324 24.217C87.2068 22.2013 83.491 19.5013 81.3031 18.8189C79.6097 18.2909 72.2034 18.0374 70.5646 18.4515ZM76.4241 254.949C76.2301 252.609 76.0427 243.949 76.0078 235.706C75.8713 203.614 74.9623 203.018 74.5045 234.721C74.3245 247.17 74.0218 258.271 73.8314 259.39C73.2664 262.715 73.3866 267.063 74.1735 271.787C74.5805 274.23 74.9141 276.686 74.9144 277.246C74.9152 277.805 75.0825 278.263 75.2866 278.263C75.4906 278.263 75.6583 277.805 75.6591 277.246C75.6598 276.686 76.0108 274.146 76.4386 271.602C77.2519 266.768 77.2504 264.919 76.4241 254.949Z" fill="url(#paint0_linear_4716_178)"/>
<g opacity="0.4">
<path d="M59.7963 162.568C59.7963 162.315 60.001 162.111 60.2536 162.111H62.5543C62.8797 162.111 63.1828 161.951 63.3824 161.694C64.2074 160.632 65.6774 159.085 66.7871 159.085C67.9203 159.085 69.6513 160.699 70.6116 161.761C70.8095 161.98 71.0877 162.111 71.3827 162.111H91.2757C91.6262 162.111 91.9103 162.395 91.9103 162.745V178.944C91.9103 185.374 86.7957 190.638 80.3686 190.822V190.822C78.5028 190.876 77.0872 192.522 77.3144 194.375L77.5862 196.592C77.713 197.626 76.9473 198.556 75.908 198.629V198.629C75.0024 198.693 74.1882 198.079 73.9997 197.191L73.6196 195.401C73.1564 193.219 73.4508 190.944 74.454 188.952L74.6088 188.645C74.6741 188.515 74.6079 188.358 74.4696 188.314L73.4153 187.978C72.289 187.62 71.0618 187.778 70.0633 188.41V188.41C69.32 188.881 68.7527 189.584 68.4495 190.41L68.2942 190.833C68.2747 190.886 68.2241 190.922 68.1675 190.922V190.922C63.5442 190.922 59.7963 187.174 59.7963 182.551V162.568Z" fill="#E58943"/>
<path d="M88.5344 130.139C87.2763 129.675 85.9399 129.475 84.6012 129.55C78.2929 129.903 67.9181 130.479 64.7113 130.641C60.2345 130.867 58.0296 134.784 57.495 136.064C56.9605 137.344 54.8223 144.575 55.4237 148.114C56.0251 151.654 55.1499 154.968 58.23 154.968C59.4573 154.968 61.0786 154.077 62.4677 153.01L64.3231 151.757C66.6201 150.205 68.5723 148.196 70.0576 145.856V145.856L70.7225 144.808C71.2883 143.916 72.2912 143.4 73.3456 143.456V143.456L76.5665 143.629L84.9427 136.613C86.9205 134.957 88.9476 132.936 88.5706 130.384C88.5589 130.305 88.5468 130.223 88.5344 130.139V130.139Z" fill="#F17E3D"/>
<path d="M72.1153 99.2572C72.1462 98.3161 72.0967 95.6392 71.6514 92.4605C71.0949 88.4871 70.6311 86.0821 67.106 86.0821C63.5809 86.0821 58.7571 92.0423 57.9222 93.4016C57.0873 94.7609 51.5215 109.191 51.5215 113.269V122.784C51.5215 124.039 51.707 126.235 52.6347 126.758C53.5623 127.28 60.0559 126.862 62.4677 125.398C64.8796 123.934 72.1153 119.334 72.1153 111.178V103.115V99.2572Z" fill="#E58943"/>
<path d="M78.9874 92.4604C78.5422 95.6391 78.4926 98.316 78.5235 99.2571V100.006V102.501V111.177C78.5235 119.333 85.7592 123.934 88.1711 125.398C90.583 126.862 97.0766 127.28 98.0042 126.758C98.9319 126.235 99.1174 124.039 99.1174 122.784V113.269C99.1174 109.191 93.5515 94.7609 92.7166 93.4015C91.8817 92.0422 87.0579 86.082 83.5329 86.082C80.0078 86.082 79.544 88.487 78.9874 92.4604Z" fill="#E58943"/>
<path d="M75.4989 97.9088C74.9856 97.9088 73.7026 97.8727 72.1153 99.2572V103.115C72.5792 102.067 73.9271 100.548 75.0177 100.548C76.1083 100.548 76.6857 100.693 78.5235 102.501V100.006C78.0596 99.1381 76.0121 97.9088 75.4989 97.9088Z" fill="#E58943"/>
<path d="M88.5706 130.384C88.9476 132.936 86.9205 134.957 84.9427 136.613L76.5665 143.629L75.8252 144.708C75.6158 145.013 75.5918 145.409 75.763 145.737L76.9569 148.025C77.1102 148.319 77.039 148.68 76.7854 148.893V148.893C76.4621 149.165 75.9738 149.095 75.7402 148.743L74.8371 147.381C74.7684 147.277 74.6811 147.188 74.5796 147.116L73.7697 146.546C73.5038 146.358 73.3456 146.053 73.3456 145.728V143.456V143.456C72.2912 143.4 71.2883 143.916 70.7225 144.808L70.0576 145.856L71.0284 146.096C71.4014 146.188 71.6885 146.486 71.7671 146.862L71.9353 147.667C72.0382 148.159 71.7594 148.651 71.2841 148.816L69.8916 149.299C69.6939 149.367 69.5227 149.496 69.4021 149.667L67.9198 151.768C67.5054 152.356 67.8274 153.175 68.5308 153.323L69.4377 153.514C69.537 153.535 69.639 153.541 69.74 153.531L70.7193 153.436C71.3064 153.38 71.6683 154.062 71.2919 154.516V154.516C71.0782 154.774 71.0911 155.151 71.3219 155.394L73.3456 157.521L73.5869 154.375C73.5935 154.289 73.5882 154.203 73.5711 154.12L73.4695 153.62C73.4055 153.305 73.6463 153.01 73.9678 153.01H74.4206C74.92 153.01 75.0298 153.712 74.5543 153.864V153.864C74.4134 153.91 74.3049 154.023 74.2658 154.166L73.3456 157.521C72.9355 158.043 73.8762 159.085 80.9195 159.085C89.7237 159.085 94.0438 146.703 94.0438 141.946C94.0438 137.188 93.35 133.734 88.5344 130.139C88.5468 130.223 88.5589 130.305 88.5706 130.384Z" fill="#F7AD42"/>
</g>
<defs>
<linearGradient id="paint0_linear_4716_178" x1="75.3186" y1="354.084" x2="75.3186" y2="18.2451" gradientUnits="userSpaceOnUse">
<stop stop-color="#EAEAEA"/>
<stop offset="1" stop-color="#228BE6"/>
</linearGradient>
</defs>
</svg>
